<?xml version="1.0" encoding="UTF-8" standalone="no"?>
<svg
   xmlns:dc="http://purl.org/dc/elements/1.1/"
   xmlns:cc="http://creativecommons.org/ns#"
   xmlns:rdf="http://www.w3.org/1999/02/22-rdf-syntax-ns#"
   xmlns:svg="http://www.w3.org/2000/svg"
   xmlns="http://www.w3.org/2000/svg"
   xmlns:sodipodi="http://sodipodi.sourceforge.net/DTD/sodipodi-0.dtd"
   xmlns:inkscape="http://www.inkscape.org/namespaces/inkscape"
   width="200"
   height="200"
   viewBox="0 0 200 200"
   version="1.1"
   preserveAspectRatio="xMidYMid"
   id="svg3742"
   sodipodi:docname="react-tracked-logo.svg"
   inkscape:version="0.92.2 5c3e80d, 2017-08-06">
  <metadata
     id="metadata3748">
    <rdf:RDF>
      <cc:Work
         rdf:about="">
        <dc:format>image/svg+xml</dc:format>
        <dc:type
           rdf:resource="http://purl.org/dc/dcmitype/StillImage" />
        <dc:title />
      </cc:Work>
    </rdf:RDF>
  </metadata>
  <defs
     id="defs3746">
    <marker
       inkscape:isstock="true"
       style="overflow:visible"
       id="marker20108"
       refX="0"
       refY="0"
       orient="auto"
       inkscape:stockid="DotS">
      <path
         inkscape:connector-curvature="0"
         transform="matrix(0.2,0,0,0.2,1.48,0.2)"
         style="fill:#008080;fill-opacity:1;fill-rule:evenodd;stroke:#008080;stroke-width:1.00000003pt;stroke-opacity:1"
         d="m -2.5,-1 c 0,2.76 -2.24,5 -5,5 -2.76,0 -5,-2.24 -5,-5 0,-2.76 2.24,-5 5,-5 2.76,0 5,2.24 5,5 z"
         id="path20106" />
    </marker>
    <marker
       inkscape:stockid="DotS"
       orient="auto"
       refY="0"
       refX="0"
       id="marker16249"
       style="overflow:visible"
       inkscape:isstock="true">
      <path
         id="path16247"
         d="m -2.5,-1 c 0,2.76 -2.24,5 -5,5 -2.76,0 -5,-2.24 -5,-5 0,-2.76 2.24,-5 5,-5 2.76,0 5,2.24 5,5 z"
         style="fill:#008080;fill-opacity:1;fill-rule:evenodd;stroke:#008080;stroke-width:1.00000003pt;stroke-opacity:1"
         transform="matrix(0.2,0,0,0.2,1.48,0.2)"
         inkscape:connector-curvature="0" />
    </marker>
    <marker
       inkscape:stockid="DotS"
       orient="auto"
       refY="0"
       refX="0"
       id="marker10818"
       style="overflow:visible"
       inkscape:isstock="true"
       inkscape:collect="always">
      <path
         id="path10816"
         d="m -2.5,-1 c 0,2.76 -2.24,5 -5,5 -2.76,0 -5,-2.24 -5,-5 0,-2.76 2.24,-5 5,-5 2.76,0 5,2.24 5,5 z"
         style="fill:#008080;fill-opacity:1;fill-rule:evenodd;stroke:#008080;stroke-width:1.00000003pt;stroke-opacity:1"
         transform="matrix(0.2,0,0,0.2,1.48,0.2)"
         inkscape:connector-curvature="0" />
    </marker>
    <marker
       inkscape:stockid="Arrow2Send"
       orient="auto"
       refY="0"
       refX="0"
       id="Arrow2Send"
       style="overflow:visible"
       inkscape:isstock="true">
      <path
         id="path4603"
         style="fill:#008080;fill-opacity:1;fill-rule:evenodd;stroke:#008080;stroke-width:0.625;stroke-linejoin:round;stroke-opacity:1"
         d="M 8.7185878,4.0337352 -2.2072895,0.01601326 8.7185884,-4.0017078 c -1.7454984,2.3720609 -1.7354408,5.6174519 -6e-7,8.035443 z"
         transform="matrix(-0.3,0,0,-0.3,0.69,0)"
         inkscape:connector-curvature="0" />
    </marker>
    <marker
       inkscape:stockid="Arrow2Mend"
       orient="auto"
       refY="0"
       refX="0"
       id="Arrow2Mend"
       style="overflow:visible"
       inkscape:isstock="true">
      <path
         id="path4597"
         style="fill:#008080;fill-opacity:1;fill-rule:evenodd;stroke:#008080;stroke-width:0.625;stroke-linejoin:round;stroke-opacity:1"
         d="M 8.7185878,4.0337352 -2.2072895,0.01601326 8.7185884,-4.0017078 c -1.7454984,2.3720609 -1.7354408,5.6174519 -6e-7,8.035443 z"
         transform="scale(-0.6)"
         inkscape:connector-curvature="0" />
    </marker>
    <marker
       inkscape:stockid="Arrow1Send"
       orient="auto"
       refY="0"
       refX="0"
       id="Arrow1Send"
       style="overflow:visible"
       inkscape:isstock="true">
      <path
         id="path4585"
         d="M 0,0 5,-5 -12.5,0 5,5 Z"
         style="fill:#008080;fill-opacity:1;fill-rule:evenodd;stroke:#008080;stroke-width:1.00000003pt;stroke-opacity:1"
         transform="matrix(-0.2,0,0,-0.2,-1.2,0)"
         inkscape:connector-curvature="0" />
    </marker>
    <marker
       inkscape:stockid="Arrow1Mend"
       orient="auto"
       refY="0"
       refX="0"
       id="Arrow1Mend"
       style="overflow:visible"
       inkscape:isstock="true">
      <path
         id="path4579"
         d="M 0,0 5,-5 -12.5,0 5,5 Z"
         style="fill:#008080;fill-opacity:1;fill-rule:evenodd;stroke:#008080;stroke-width:1.00000003pt;stroke-opacity:1"
         transform="matrix(-0.4,0,0,-0.4,-4,0)"
         inkscape:connector-curvature="0" />
    </marker>
    <marker
       inkscape:stockid="Arrow1Mstart"
       orient="auto"
       refY="0"
       refX="0"
       id="marker5797"
       style="overflow:visible"
       inkscape:isstock="true">
      <path
         id="path5795"
         d="M 0,0 5,-5 -12.5,0 5,5 Z"
         style="fill:#008080;fill-opacity:1;fill-rule:evenodd;stroke:#008080;stroke-width:1.00000003pt;stroke-opacity:1"
         transform="matrix(0.4,0,0,0.4,4,0)"
         inkscape:connector-curvature="0" />
    </marker>
    <marker
       inkscape:stockid="Arrow1Mstart"
       orient="auto"
       refY="0"
       refX="0"
       id="Arrow1Mstart"
       style="overflow:visible"
       inkscape:isstock="true">
      <path
         id="path4576"
         d="M 0,0 5,-5 -12.5,0 5,5 Z"
         style="fill:#008080;fill-opacity:1;fill-rule:evenodd;stroke:#008080;stroke-width:1.00000003pt;stroke-opacity:1"
         transform="matrix(0.4,0,0,0.4,4,0)"
         inkscape:connector-curvature="0" />
    </marker>
    <marker
       style="overflow:visible"
       inkscape:stockid="InfiniteLineEnd"
       id="InfiniteLineEnd"
       refX="0"
       refY="0"
       orient="auto"
       inkscape:isstock="true">
      <g
         id="g4811"
         style="fill:#008080;fill-opacity:1;stroke:#008080;stroke-opacity:1">
        <circle
           id="circle4805"
           r="0.80000001"
           cy="0"
           cx="3"
           style="fill:#008080;fill-opacity:1;stroke:#008080;stroke-opacity:1" />
        <circle
           id="circle4807"
           r="0.80000001"
           cy="0"
           cx="6.5"
           style="fill:#008080;fill-opacity:1;stroke:#008080;stroke-opacity:1" />
        <circle
           id="circle4809"
           r="0.80000001"
           cy="0"
           cx="10"
           style="fill:#008080;fill-opacity:1;stroke:#008080;stroke-opacity:1" />
      </g>
    </marker>
    <marker
       inkscape:stockid="CurveIn"
       orient="auto"
       refY="0"
       refX="0"
       id="CurveIn"
       style="overflow:visible"
       inkscape:isstock="true">
      <path
         id="path4754"
         d="m 4.625493,-5.0456926 c -2.76,0 -5.00000002,2.24 -5.00000002,5.00000002 0,2.75999998 2.24000002,4.99999998 5.00000002,4.99999998"
         style="fill:none;fill-rule:evenodd;stroke:#008080;stroke-width:1.00000003pt;stroke-opacity:1"
         transform="scale(0.6)"
         inkscape:connector-curvature="0" />
    </marker>
    <marker
       inkscape:stockid="EmptyDiamondLstart"
       orient="auto"
       refY="0"
       refX="0"
       id="EmptyDiamondLstart"
       style="overflow:visible"
       inkscape:isstock="true">
      <path
         id="path4685"
         d="M 0,-7.0710768 -7.0710894,0 0,7.0710589 7.0710462,0 Z"
         style="fill:#ffffff;fill-rule:evenodd;stroke:#008080;stroke-width:1.00000003pt;stroke-opacity:1"
         transform="matrix(0.8,0,0,0.8,5.6,0)"
         inkscape:connector-curvature="0" />
    </marker>
    <marker
       inkscape:stockid="EmptyDiamondMend"
       orient="auto"
       refY="0"
       refX="0"
       id="EmptyDiamondMend"
       style="overflow:visible"
       inkscape:isstock="true">
      <path
         id="path4697"
         d="M 0,-7.0710768 -7.0710894,0 0,7.0710589 7.0710462,0 Z"
         style="fill:#ffffff;fill-rule:evenodd;stroke:#008080;stroke-width:1.00000003pt;stroke-opacity:1"
         transform="matrix(0.4,0,0,0.4,-2.6,0)"
         inkscape:connector-curvature="0" />
    </marker>
    <marker
       inkscape:stockid="EmptyDiamondL"
       orient="auto"
       refY="0"
       refX="0"
       id="EmptyDiamondL"
       style="overflow:visible"
       inkscape:isstock="true">
      <path
         id="path4676"
         d="M 0,-7.0710768 -7.0710894,0 0,7.0710589 7.0710462,0 Z"
         style="fill:#ffffff;fill-rule:evenodd;stroke:#008080;stroke-width:1.00000003pt;stroke-opacity:1"
         transform="scale(0.8)"
         inkscape:connector-curvature="0" />
    </marker>
    <marker
       inkscape:stockid="EmptyDiamondSend"
       orient="auto"
       refY="0"
       refX="0"
       id="EmptyDiamondSend"
       style="overflow:visible"
       inkscape:isstock="true">
      <path
         id="path4700"
         d="M 0,-7.0710768 -7.0710894,0 0,7.0710589 7.0710462,0 Z"
         style="fill:#ffffff;fill-rule:evenodd;stroke:#008080;stroke-width:1.00000003pt;stroke-opacity:1"
         transform="matrix(0.2,0,0,0.2,-1.2,0)"
         inkscape:connector-curvature="0" />
    </marker>
    <marker
       inkscape:stockid="EmptyDiamondS"
       orient="auto"
       refY="0"
       refX="0"
       id="EmptyDiamondS"
       style="overflow:visible"
       inkscape:isstock="true">
      <path
         id="path4682"
         d="M 0,-7.0710768 -7.0710894,0 0,7.0710589 7.0710462,0 Z"
         style="fill:#ffffff;fill-rule:evenodd;stroke:#008080;stroke-width:1.00000003pt;stroke-opacity:1"
         transform="scale(0.2)"
         inkscape:connector-curvature="0" />
    </marker>
    <marker
       inkscape:stockid="DiamondSstart"
       orient="auto"
       refY="0"
       refX="0"
       id="DiamondSstart"
       style="overflow:visible"
       inkscape:isstock="true">
      <path
         id="path4664"
         d="M 0,-7.0710768 -7.0710894,0 0,7.0710589 7.0710462,0 Z"
         style="fill:#008080;fill-opacity:1;fill-rule:evenodd;stroke:#008080;stroke-width:1.00000003pt;stroke-opacity:1"
         transform="matrix(0.2,0,0,0.2,1.2,0)"
         inkscape:connector-curvature="0" />
    </marker>
    <marker
       inkscape:stockid="DiamondSend"
       orient="auto"
       refY="0"
       refX="0"
       id="marker4952"
       style="overflow:visible"
       inkscape:isstock="true">
      <path
         id="path4950"
         d="M 0,-7.0710768 -7.0710894,0 0,7.0710589 7.0710462,0 Z"
         style="fill:#008080;fill-opacity:1;fill-rule:evenodd;stroke:#008080;stroke-width:1.00000003pt;stroke-opacity:1"
         transform="matrix(0.2,0,0,0.2,-1.2,0)"
         inkscape:connector-curvature="0" />
    </marker>
    <marker
       inkscape:stockid="DiamondSend"
       orient="auto"
       refY="0"
       refX="0"
       id="DiamondSend"
       style="overflow:visible"
       inkscape:isstock="true">
      <path
         id="path4673"
         d="M 0,-7.0710768 -7.0710894,0 0,7.0710589 7.0710462,0 Z"
         style="fill:#008080;fill-opacity:1;fill-rule:evenodd;stroke:#008080;stroke-width:1.00000003pt;stroke-opacity:1"
         transform="matrix(0.2,0,0,0.2,-1.2,0)"
         inkscape:connector-curvature="0" />
    </marker>
    <marker
       inkscape:stockid="DiamondS"
       orient="auto"
       refY="0"
       refX="0"
       id="marker4880"
       style="overflow:visible"
       inkscape:isstock="true">
      <path
         id="path4878"
         d="M 0,-7.0710768 -7.0710894,0 0,7.0710589 7.0710462,0 Z"
         style="fill:#008080;fill-opacity:1;fill-rule:evenodd;stroke:#008080;stroke-width:1.00000003pt;stroke-opacity:1"
         transform="scale(0.2)"
         inkscape:connector-curvature="0" />
    </marker>
    <marker
       inkscape:stockid="DiamondS"
       orient="auto"
       refY="0"
       refX="0"
       id="DiamondS"
       style="overflow:visible"
       inkscape:isstock="true">
      <path
         id="path4655"
         d="M 0,-7.0710768 -7.0710894,0 0,7.0710589 7.0710462,0 Z"
         style="fill:#008080;fill-opacity:1;fill-rule:evenodd;stroke:#008080;stroke-width:1.00000003pt;stroke-opacity:1"
         transform="scale(0.2)"
         inkscape:connector-curvature="0" />
    </marker>
    <marker
       inkscape:stockid="DiamondL"
       orient="auto"
       refY="0"
       refX="0"
       id="DiamondL"
       style="overflow:visible"
       inkscape:isstock="true">
      <path
         id="path4649"
         d="M 0,-7.0710768 -7.0710894,0 0,7.0710589 7.0710462,0 Z"
         style="fill:#008080;fill-opacity:1;fill-rule:evenodd;stroke:#008080;stroke-width:1.00000003pt;stroke-opacity:1"
         transform="scale(0.8)"
         inkscape:connector-curvature="0" />
    </marker>
  </defs>
  <sodipodi:namedview
     pagecolor="#ffffff"
     bordercolor="#666666"
     borderopacity="1"
     objecttolerance="10"
     gridtolerance="10"
     guidetolerance="10"
     inkscape:pageopacity="0"
     inkscape:pageshadow="2"
     inkscape:window-width="1131"
     inkscape:window-height="628"
     id="namedview3744"
     showgrid="false"
     inkscape:zoom="1.4837669"
     inkscape:cx="102.83617"
     inkscape:cy="97.975505"
     inkscape:window-x="0"
     inkscape:window-y="0"
     inkscape:window-maximized="0"
     inkscape:current-layer="svg3742" />
<g>
   <animateTransform
     attributeName="transform"
     attributeType="XML"
     type="rotate"
     values="0 100 100; 0 100 100; 20 100 100; 0 100 100"
     dur="5s"
     calcMode="spline"
     keyTimes="0; .8; .9; 1"
     keySplines="0.42 0 0.58 1.0; 0.42 0 0.58 1.0; 0.42 0 0.58 1.0"
     repeatCount="indefinite" />
  <g
     id="g20739"
     transform="matrix(0.8758936,0,0,0.8758936,11.797348,12.980034)">
    <path
       sodipodi:nodetypes="cssccc"
       inkscape:connector-curvature="0"
       id="path6692"
       d="M 100.61008,172.38652 28.600224,115.42614 C -9.932177,84.946732 35.363744,30.076848 74.694008,63.165042 L 97.290027,82.174907 86.656111,80.72868 91.12468,77.029176"
       style="fill:none;fill-rule:evenodd;stroke:#008080;stroke-width:21.58509064;stroke-linecap:butt;stroke-linejoin:miter;stroke-miterlimit:4;stroke-dasharray:none;stroke-opacity:1;marker-start:url(#marker10818)" />
    <path
       style="fill:none;fill-rule:evenodd;stroke:#008080;stroke-width:21.58509064;stroke-linecap:butt;stroke-linejoin:miter;stroke-miterlimit:4;stroke-dasharray:none;stroke-opacity:1;marker-start:url(#marker20108)"
       d="m 100.7903,26.313335 72.00986,56.960377 c 38.53239,30.479448 -6.76352,85.349328 -46.09379,52.261138 l -22.59602,-19.00987 10.63391,1.44623 -4.46856,3.6995"
       id="path20104"
       inkscape:connector-curvature="0"
       sodipodi:nodetypes="cssccc" />
  </g>
</g>
</svg>
